<?xml version="1.0" encoding="utf-8"?>
<!-- Generator: Adobe Illustrator 18.0.0, SVG Export Plug-In . SVG Version: 6.00 Build 0)  -->
<!DOCTYPE svg PUBLIC "-//W3C//DTD SVG 1.1//EN" "http://www.w3.org/Graphics/SVG/1.1/DTD/svg11.dtd">
<svg version="1.1" id="Capa_1" xmlns="http://www.w3.org/2000/svg" xmlns:xlink="http://www.w3.org/1999/xlink" x="0px" y="0px"
	 viewBox="0 0 595.3 841.9" enable-background="new 0 0 595.3 841.9" xml:space="preserve">
<g>
	<path id="cloud" fill="#FFFFFF" stroke="#000000" stroke-miterlimit="10" d="M476.9,360.2C469,277.7,400.3,213,315.7,213
		c-65.5,0-121.5,38.9-147.3,94.6c-7.8-2.5-15.9-4.2-24.5-4.2c-44.9,0-81.4,36.5-81.4,81.4c0,8.9,1.8,17.4,4.4,25.4
		C32,430.6,8.3,468,8.3,511.4c0,64.9,52.6,117.6,117.6,117.6v0h325.5v0c74.9,0,135.7-60.7,135.7-135.7
		C587,427.1,539.6,372.2,476.9,360.2z"/>
</g>
</svg>
